<?xml version="1.0" standalone="no"?>
<!DOCTYPE svg PUBLIC "-//W3C//DTD SVG 20010904//EN"
 "http://www.w3.org/TR/2001/REC-SVG-20010904/DTD/svg10.dtd">
<svg version="1.0" xmlns="http://www.w3.org/2000/svg"
 width="1812.000000pt" height="1812.000000pt" viewBox="0 0 1812.000000 1812.000000"
 preserveAspectRatio="xMidYMid meet">
<metadata>
Created by potrace 1.14, written by Peter Selinger 2001-2017
</metadata>
<g transform="translate(0.000000,1812.000000) scale(0.100000,-0.100000)"
fill="#000000" stroke="none">
<path d="M9036 15763 c-1 -1 -955 -4 -2119 -7 l-2117 -5 -87 -52 c-215 -130
-272 -189 -439 -452 l-30 -47 -3 -1173 c-7 -2602 -6 -10226 2 -10567 11 -552
11 -554 111 -714 83 -134 182 -225 326 -303 124 -66 134 -67 670 -78 1346 -28
6793 -27 7616 0 196 7 214 9 280 39 174 80 406 322 430 450 2 12 6 32 9 46 5
26 14 144 20 264 14 283 19 1806 19 5911 0 4739 -3 5317 -29 5840 -9 174 -34
350 -60 410 -37 90 -149 213 -261 287 -38 25 -120 71 -182 102 l-112 56 -2021
-2 c-1111 -2 -2022 -4 -2023 -5z m-785 -1638 c95 -49 147 -143 136 -249 -24
-235 -298 -331 -460 -162 -52 54 -62 84 -62 181 0 98 14 142 63 191 74 74 219
91 323 39z m1696 -1 c170 -82 196 -327 47 -452 -112 -94 -241 -88 -355 15 -92
83 -108 201 -43 317 76 136 218 184 351 120z m-2932 -381 c47 -25 106 -84 131
-133 27 -52 25 -143 -5 -202 -56 -111 -121 -157 -224 -162 -165 -6 -254 63
-274 216 -19 140 34 241 151 290 57 23 168 19 221 -9z m4161 3 c93 -43 164
-142 166 -231 1 -84 -80 -213 -159 -250 -55 -26 -175 -24 -238 4 -65 29 -89
52 -116 114 -27 63 -30 182 -6 238 26 60 96 118 167 140 53 16 134 9 186 -15z"/>
<path d="M14069 15272 c-2 -16 3 -106 7 -126 24 -117 28 -1269 26 -6879 -1
-2968 2 -5397 7 -5397 9 0 376 198 616 332 94 53 193 108 220 123 110 61 594
341 655 378 36 22 75 45 87 51 13 6 23 14 23 19 0 4 6 7 14 7 20 0 132 123
182 200 73 113 88 178 100 430 32 704 39 8761 8 9385 -7 144 -50 304 -103 385
-9 14 -23 38 -31 53 -32 65 -162 188 -245 233 -11 6 -60 33 -110 61 -49 27
-157 85 -240 128 -82 44 -177 94 -210 111 -33 18 -104 55 -158 83 -54 28 -148
77 -210 110 -140 73 -549 281 -599 304 -21 9 -38 13 -39 9z"/>
<path d="M3578 15111 c-141 -71 -285 -145 -320 -164 -34 -19 -117 -63 -183
-97 -66 -35 -136 -72 -155 -83 -19 -11 -48 -27 -65 -35 -58 -30 -383 -211
-426 -238 -49 -30 -198 -146 -214 -166 -127 -160 -160 -242 -170 -413 -19
-359 -25 -1516 -25 -4850 1 -3932 7 -4741 41 -4915 30 -150 156 -288 451 -493
38 -26 70 -47 72 -47 3 0 31 -17 63 -39 90 -59 520 -306 793 -454 30 -16 102
-56 160 -87 58 -32 138 -74 178 -94 l72 -36 1 32 c29 1263 29 11993 0 12296 0
6 -5 12 -9 12 -5 0 -124 -58 -264 -129z"/>
<path d="M16418 14037 c-7 -114 6 -2597 16 -2837 5 -125 17 -219 30 -229 11
-9 130 82 326 249 25 21 90 75 145 120 55 45 118 96 140 115 107 88 467 384
505 415 24 19 48 40 54 45 6 6 34 28 61 50 28 22 52 43 55 46 3 3 43 36 90 74
47 38 90 73 97 79 6 6 50 42 97 80 l85 69 -4 56 c-2 31 -7 101 -10 156 -10
165 -22 267 -41 363 -36 175 -102 308 -202 409 -66 65 -191 142 -547 335 -356
194 -757 400 -857 441 l-36 15 -4 -51z"/>
<path d="M1440 14002 c-85 -43 -186 -96 -225 -117 -38 -21 -115 -62 -170 -92
-55 -30 -107 -58 -115 -63 -14 -8 -110 -61 -225 -125 -120 -66 -295 -171 -353
-212 -185 -131 -279 -296 -306 -538 -3 -27 -8 -68 -11 -90 -3 -34 -9 -148 -19
-432 l-2 -53 279 -232 c154 -128 285 -238 291 -243 6 -6 67 -58 136 -115 69
-58 127 -107 130 -110 3 -3 46 -39 95 -80 50 -41 92 -77 95 -80 3 -3 21 -18
40 -34 36 -29 92 -78 259 -225 53 -46 127 -114 165 -152 38 -38 70 -68 72 -66
2 2 6 259 19 1592 13 1177 14 1545 7 1545 -4 0 -77 -35 -162 -78z"/>
<path d="M1538 7233 c-1 -5 -37 -37 -78 -73 -41 -36 -77 -67 -80 -70 -3 -3
-50 -43 -105 -89 -55 -46 -109 -90 -120 -100 -65 -54 -362 -296 -425 -346 -41
-33 -77 -63 -80 -66 -3 -3 -50 -41 -105 -84 -55 -44 -102 -81 -105 -85 -3 -3
-50 -41 -105 -85 -55 -44 -109 -87 -120 -97 -67 -55 -156 -126 -183 -147 l-32
-24 5 -221 c8 -380 24 -480 98 -619 78 -147 255 -295 592 -492 55 -32 128 -76
162 -97 34 -21 64 -38 66 -38 3 0 47 -24 98 -53 96 -54 191 -107 289 -160 30
-16 60 -33 65 -37 25 -19 236 -122 241 -118 8 8 8 57 0 168 -11 165 -16 519
-21 1580 -5 1075 -10 1318 -31 1351 -6 11 -21 12 -26 2z"/>
<path d="M16429 7218 c0 -13 0 -617 1 -1343 0 -1183 4 -1556 15 -1635 2 -14 4
-34 4 -46 1 -11 7 -29 15 -39 12 -17 23 -13 197 77 237 123 350 183 422 225
32 18 60 33 63 33 12 0 377 213 462 269 207 137 323 254 390 394 34 70 67 184
77 262 3 28 7 57 10 65 3 15 11 104 20 260 3 47 8 108 10 137 6 60 9 55 -101
138 -43 33 -81 62 -84 65 -3 3 -75 60 -160 125 -85 66 -162 125 -170 132 -8 7
-244 190 -525 408 -280 217 -535 415 -565 438 -77 61 -80 62 -81 35z"/>
</g>
</svg>
